PathFileType	4	(X/Y/Z)	/Users/itak/Documents/Research/Walk-IL/dataset/trc/00444_00167.trc
DataRate	CameraRate	NumFrames	NumMarkers	Units	OrigDataRate	OrigDataStartFrame	OrigNumFrames
100.000000	100.000000	4	53	mm	100.000000	338	542
Frame#	Time	RPSI			LPSI			L3			STRN			T10			C7			CLAV			RBAK			LBAK			LSHO			LUPA			LAEL			LAOL			LWTS			LWPS			LFRA			LIFD			LHPS			LHTS			RSHO			RUPA			RAEL			RAOL			RWTS			RWPS			RFRA			RIFD			RHTS			RHPS			RBHD			LFHD			RFHD			LBHD			LHIP			RHIP			RASI			LASI			LKNE			LTHI			LANK			LTIP			LTOE			LMT1			LMT5			LHEE			RKNE			RTHI			RANK			RTIP			RTOE			RMT1			RMT5			RHEE			
		X1	Y1	Z1	X2	Y2	Z2	X3	Y3	Z3	X4	Y4	Z4	X5	Y5	Z5	X6	Y6	Z6	X7	Y7	Z7	X8	Y8	Z8	X9	Y9	Z9	X10	Y10	Z10	X11	Y11	Z11	X12	Y12	Z12	X13	Y13	Z13	X14	Y14	Z14	X15	Y15	Z15	X16	Y16	Z16	X17	Y17	Z17	X18	Y18	Z18	X19	Y19	Z19	X20	Y20	Z20	X21	Y21	Z21	X22	Y22	Z22	X23	Y23	Z23	X24	Y24	Z24	X25	Y25	Z25	X26	Y26	Z26	X27	Y27	Z27	X28	Y28	Z28	X29	Y29	Z29	X30	Y30	Z30	X31	Y31	Z31	X32	Y32	Z32	X33	Y33	Z33	X34	Y34	Z34	X35	Y35	Z35	X36	Y36	Z36	X37	Y37	Z37	X38	Y38	Z38	X39	Y39	Z39	X40	Y40	Z40	X41	Y41	Z41	X42	Y42	Z42	X43	Y43	Z43	X44	Y44	Z44	X45	Y45	Z45	X46	Y46	Z46	X47	Y47	Z47	X48	Y48	Z48	X49	Y49	Z49	X50	Y50	Z50	X51	Y51	Z51	X52	Y52	Z52	X53	Y53	Z53	

339	3.38	77.35768890380859	935.544189453125	313.2572631835938	150.0016632080078	946.4086303710938	191.9014587402344	121.3507843017578	1041.442504882812	258.9875793457031	347.3263549804688	1238.107299804688	410.8876647949219	117.247314453125	1165.225341796875	240.7394561767578	163.5213165283203	1433.285034179688	287.3154907226562	316.1159057617188	1352.015991210938	389.8255615234375	57.16332626342773	1313.92236328125	318.0848999023438	201.9868469238281	1387.712036132812	187.6510162353516	330.182373046875	1411.58203125	193.9128875732422	404.2958068847656	1303.75244140625	114.9277801513672	495.9284973144531	1106.103271484375	117.6005783081055	402.7519226074219	1062.0048828125	107.848274230957	577.2725830078125	944.8710327148438	244.0009002685547	592.2907104492188	916.9179077148438	177.3379058837891	541.9456787109375	1032.177124023438	141.8696441650391	635.428955078125	791.2302856445312	282.8723754882812	623.236083984375	845.8604125976562	201.8450622558594	623.5726318359375	870.3533325195312	268.5285339355469	116.4863357543945	1402.610473632812	455.5463562011719	48.75324630737305	1344.821044921875	497.8213195800781	-25.69695854187012	1065.47900390625	511.8150939941406	-36.55409240722656	1059.274047851562	444.8756408691406	38.76784515380859	843.7720947265625	522.2659301757812	-49.4510498046875	845.8977661132812	518.0132446289062	-40.27874374389648	1008.175231933594	514.4722900390625	3.665295600891113	689.045166015625	501.9278259277344	22.09813690185547	742.9810180664062	523.9434814453125	-52.04458236694336	757.293701171875	514.04296875	175.1788024902344	1628.468994140625	400.5975646972656	375.8673706054688	1649.70263671875	355.8689575195312	297.7585144042969	1651.964965820312	460.3286743164062	269.1416320800781	1629.473510742188	247.9380035400391	323.5939025878906	847.7921142578125	154.7209014892578	121.5789947509766	843.8704223632812	501.6250610351562	235.2755737304688	895.1661987304688	488.2566223144531	371.9525451660156	884.7469482421875	271.8359375	265.9725036621094	426.3164367675781	190.5741424560547	314.3810119628906	577.7463989257812	185.6319580078125	136.3820343017578	33.64706420898438	131.6365814208984	237.2947082519531	273.3437194824219	172.1611785888672	262.3472900390625	38.88557815551758	329.4164123535156	190.0223846435547	45.48075485229492	302.5299682617188	261.436767578125	39.79951095581055	212.3829498291016	63.85079193115234	38.54265975952148	134.9281311035156	270.2955627441406	475.809814453125	563.4346313476562	185.2101745605469	725.8727416992188	554.2085571289062	314.4884948730469	40.76596069335938	575.5990600585938	283.0940551757812	332.5105590820312	586.1949462890625	492.3465576171875	105.2194747924805	665.6697998046875	473.1803894042969	90.61921691894531	599.0302124023438	399.4823608398438	62.20582580566406	670.212890625	292.4679870605469	29.72533988952637	498.1652221679688	
340	3.39	86.16204833984375	933.413330078125	321.0490417480469	157.6881408691406	945.126220703125	199.1649475097656	129.5598907470703	1038.91943359375	266.0015563964844	356.0564575195312	1235.691162109375	417.0397338867188	125.4373626708984	1162.641357421875	247.3968048095703	171.7257843017578	1430.627197265625	293.6920776367188	324.5416870117188	1349.574584960938	396.2354736328125	65.66021728515625	1310.876953125	324.2724609375	210.3494262695312	1385.287231445312	193.9181823730469	338.3602600097656	1409.422119140625	200.3960876464844	413.4305419921875	1302.256591796875	121.6396789550781	508.1327514648438	1106.396850585938	125.1936798095703	415.847900390625	1060.535034179688	114.7783279418945	591.07373046875	948.1655883789062	254.0274353027344	607.6536865234375	919.9253540039062	187.8714752197266	555.3095703125	1033.64794921875	150.6588592529297	652.34716796875	796.4738159179688	295.4193420410156	640.0363159179688	849.9251098632812	213.5741271972656	638.8627319335938	875.1551513671875	280.0215759277344	124.5246810913086	1399.712158203125	461.7149963378906	56.85240173339844	1341.706176757812	503.657470703125	-17.3383674621582	1062.459594726562	517.4925537109375	-27.98152542114258	1056.313598632812	450.5281066894531	46.85741806030273	840.7169189453125	527.97412109375	-41.43967437744141	843.0056762695312	523.430419921875	-31.96225738525391	1005.177124023438	520.008056640625	11.33877468109131	686.066650390625	507.6015930175781	29.86733818054199	739.94091796875	529.6192626953125	-44.22537994384766	754.4348754882812	519.5223388671875	182.9560394287109	1625.633666992188	407.5910339355469	383.6544189453125	1647.457275390625	363.1871337890625	305.44287109375	1649.177124023438	467.5771484375	277.0907287597656	1627.340942382812	255.0720672607422	330.54345703125	846.7354125976562	159.6437072753906	131.3956756591797	840.514892578125	508.3038024902344	245.4532012939453	891.9775390625	494.9742736816406	380.1441345214844	882.5960693359375	276.8124084472656	268.9140625	425.6278991699219	192.3507690429688	318.8353271484375	576.6969604492188	188.2910308837891	136.0180358886719	33.95958709716797	131.9771118164062	238.9172210693359	273.0733032226562	173.1802978515625	262.4349060058594	38.827392578125	329.4265747070312	190.1176300048828	45.51731491088867	302.5733032226562	261.3544921875	39.80377197265625	212.3480224609375	63.53285217285156	39.25406265258789	135.4218292236328	279.9290466308594	471.8505249023438	567.99755859375	193.7860107421875	721.4868774414062	559.6394653320312	343.0487365722656	40.02836990356445	595.8079223632812	298.4333190917969	330.746826171875	595.7228393554688	518.8744506835938	114.8283615112305	681.9698486328125	499.4811401367188	97.49507141113281	615.8485717773438	428.0890502929688	67.86049652099609	688.7706909179688	320.6858520507812	25.68747711181641	518.9210815429688	
341	3.4	95.02527618408203	931.1221313476562	328.8668518066406	165.4246215820312	943.7693481445312	206.475341796875	137.8206939697266	1036.263305664062	273.083251953125	364.7882690429688	1233.130004882812	423.3038940429688	133.6334075927734	1159.93310546875	254.1495361328125	179.942626953125	1427.86474609375	300.1851501464844	332.9935913085938	1346.988525390625	402.7647399902344	74.17445373535156	1307.692016601562	330.6322021484375	218.6855926513672	1382.750244140625	200.300537109375	346.5097045898438	1407.099243164062	206.9803619384766	422.4790954589844	1300.553588867188	128.4797821044922	520.0558471679688	1106.48193359375	132.8695831298828	428.6584167480469	1058.935302734375	121.8337631225586	604.4617919921875	951.0780029296875	263.8682861328125	622.5333251953125	922.665771484375	198.1805877685547	568.3134765625	1034.874755859375	159.4087829589844	668.7517700195312	801.35302734375	307.52978515625	656.30126953125	853.7246704101562	224.9629516601562	653.6734008789062	879.5682373046875	291.1861572265625	132.6039581298828	1396.707763671875	468.0448913574219	65.02748107910156	1338.446533203125	509.6610717773438	-8.745500564575195	1059.260620117188	523.4498291015625	-19.17501831054688	1053.163452148438	456.4565734863281	55.16303634643555	837.4644165039062	533.955322265625	-33.17870712280273	839.9390869140625	529.122314453125	-23.43466567993164	1002.0078125	525.8521728515625	19.23711585998535	682.9133911132812	513.4711303710938	37.85782241821289	736.708984375	535.5328369140625	-36.16664886474609	751.3982543945312	525.2361450195312	190.733154296875	1622.716796875	414.6407470703125	391.4403076171875	1645.091674804688	370.5424194335938	313.1305847167969	1646.299560546875	474.8766174316406	285.0300598144531	1625.07666015625	262.2729187011719	337.5903015136719	845.588623046875	164.6649169921875	141.2633819580078	836.9976196289062	515.0130004882812	255.6696014404297	888.593017578125	501.6719665527344	388.4439697265625	880.3445434570312	281.8380737304688	272.170654296875	424.8521118164062	194.3632965087891	323.5591735839844	575.578369140625	191.1671752929688	135.6316223144531	34.29160690307617	132.3372344970703	240.7246551513672	272.7404174804688	174.3510284423828	262.5308227539062	38.76790237426758	329.4371032714844	190.2145233154297	45.55487060546875	302.6256408691406	261.267578125	39.82273101806641	212.3268585205078	63.19524383544922	40.05040740966797	135.9181060791016	289.4982604980469	467.9550170898438	572.888427734375	202.4243927001953	717.0656127929688	565.1525268554688	370.8289489746094	40.0750732421875	614.8746337890625	313.2026062011719	329.2474975585938	605.0149536132812	544.2483520507812	124.7268218994141	696.9654541015625	524.6900024414062	104.9594116210938	631.4117431640625	455.7995910644531	73.80667114257812	706.0371704101562	348.1591491699219	22.86544990539551	538.5632934570312	
342	3.41	103.9200820922852	928.7011108398438	336.6900329589844	173.2146911621094	942.333984375	213.8243560791016	146.1279907226562	1033.5107421875	280.2349853515625	373.5272216796875	1230.44970703125	429.6794738769531	141.8356781005859	1157.145751953125	261.0132446289062	188.1825256347656	1425.036987304688	306.8124389648438	341.4813232421875	1344.285278320312	409.4163818359375	82.70755767822266	1304.419189453125	337.1809997558594	226.9915466308594	1380.139770507812	206.8162536621094	354.6431884765625	1404.653442382812	213.6751251220703	431.4343566894531	1298.673583984375	135.44921875	531.671875	1106.364135742188	140.6093139648438	441.1513366699219	1057.223876953125	129.0265502929688	617.455322265625	953.601318359375	273.4994201660156	636.9050903320312	925.1043090820312	208.2361145019531	580.9368286132812	1035.84814453125	168.0897827148438	684.6151123046875	805.8268432617188	319.1769714355469	671.9841918945312	857.205078125	235.9763946533203	668.0032958984375	883.5587158203125	301.9874267578125	140.7467651367188	1393.626098632812	474.5583801269531	73.29695892333984	1335.07080078125	515.8551635742188	0.071119025349617	1055.915161132812	529.696044921875	-10.1443977355957	1049.857055664062	462.6653747558594	63.70888519287109	834.0564575195312	540.2084350585938	-24.65141105651855	836.7268676757812	535.0919799804688	-14.6971960067749	998.6992797851562	532.0089721679688	27.4013786315918	679.6172485351562	519.5338745117188	46.09763717651367	733.3251953125	541.6814575195312	-27.84012222290039	748.210205078125	531.1881713867188	198.5140991210938	1619.753540039062	421.7559509277344	399.232666015625	1642.642211914062	377.9427490234375	320.8247985839844	1643.372802734375	482.2322082519531	292.9649047851562	1622.716674804688	269.546630859375	344.7614440917969	844.3551635742188	169.8074951171875	151.1676940917969	833.3926391601562	521.764892578125	265.8871459960938	885.0826416015625	508.33544921875	396.8251953125	877.9995727539062	286.9295654296875	275.7585144042969	423.9882507324219	196.6236267089844	328.5802307128906	574.3861694335938	194.2943572998047	135.2669677734375	34.66559600830078	132.6885528564453	242.7298736572266	272.3380737304688	175.6748962402344	262.6304016113281	38.70827865600586	329.4466247558594	190.3154144287109	45.59347915649414	302.6815795898438	261.1874389648438	39.84967041015625	212.3166961669922	62.87529373168945	40.95428085327148	136.3785552978516	299.0917358398438	464.2026977539062	578.1503295898438	211.2044525146484	712.72802734375	570.8123779296875	397.5337829589844	40.65545272827148	632.6254272460938	327.3846740722656	327.9482727050781	614.0319213867188	568.238037109375	134.4898071289062	710.7265014648438	548.5924682617188	112.6291656494141	645.7508544921875	482.3229064941406	79.67844390869141	721.9694213867188	374.6201477050781	21.04340934753418	556.8656005859375	
